<svg xmlns="http://www.w3.org/2000/svg" version="1.1" xmlns:xlink="http://www.w3.org/1999/xlink" xmlns:svgjs="http://svgjs.com/svgjs" width="62.7323" height="62.7323"><svg xmlns="http://www.w3.org/2000/svg" xmlns:xlink="http://www.w3.org/1999/xlink" viewBox="0 0 62.7323 62.7323">
  <defs>
    <style>
      .j {
        opacity: .72;
      }

      .k {
        font-family: Consolas-Bold, Consolas;
        font-size: 37.0845px;
        stroke: #f3233f;
      }

      .k, .l {
        fill: none;
      }

      .k, .m {
        stroke-miterlimit: 10;
      }

      .n {
        clip-path: url(#b);
      }

      .o {
        fill: #f3233f;
      }

      .p {
        fill: #efefef;
      }

      .m {
        fill: #013480;
        stroke: #013480;
        stroke-width: .25px;
      }
    </style>
    <clipPath id="SvgjsClipPath1003">
      <rect class="l" x="-397.9783" y="-801.8381" width="1338.2572" height="753.4084"></rect>
    </clipPath>
  </defs>
  <g id="SvgjsG1002" data-name="Layer 1">
    <g class="j">
      <g class="n">
        <g id="SvgjsG1001" data-name="&amp;lt;Grid Repeat&amp;gt;">
          <text class="k" transform="translate(-34.3209 -4.2021) scale(.9684 1)" svgjs:data="{&quot;leading&quot;:&quot;1.3&quot;}"><tspan x="0" y="0" svgjs:data="{&quot;leading&quot;:&quot;1.3&quot;}">{ }</tspan></text>
        </g>
      </g>
    </g>
  </g>
  <g id="SvgjsG1000" data-name="Layer 7">
    <circle class="p" cx="31.3662" cy="31.3662" r="31.3662"></circle>
    <g>
      <path class="o" d="M21.7724,48.418c-6.9053,.2477-6.8585-7.4154-6.5994-12.4672,.1672-2.0019-.609-2.1454-2.2321-2.8379-1.1635-.4713-2.2547-.4336-3.4958-.3908-.7658-.0518-1.4923-.9321-1.5677-1.2312-.0429-.1701,.7803-1.0572,1.0626-1.622,.3502-.7459,1.2277-1.1942,2.017-.8975,1.248,.0817,2.8498-.1246,3.4188-.928,1.1087-1.0528,.7406-4.2741,.7967-5.819-.1312-4.5055,2.5618-8.2207,6.8272-7.7619,1.5644,.498,2.0241,2.9014,.8744,3.7384-.4841,.3531-1.3107,.1504-1.8957,.3219-4.6933,1.706,1.4276,11.4725-5.9544,12.1609,5.8689,1.0811,3.2696,7.9756,4.273,11.9932,.4645,1.8871,2.3468,1.8317,3.6878,2.6941,1.3288,.9059,.6536,3.0707-1.2125,3.0471Z"></path>
      <path class="m" d="M21.1084,14.3085c1.7233,0,1.8394,2.398,.6767,3.2397-.4843,.3506-1.2551,.1902-1.8429,.3638-.9591,.2893-1.5937,.9374-1.9198,1.9277-.8885,3.5163,1.2102,9.9879-3.9453,10.4941,5.7246,.6581,2.8123,8.3339,3.9453,12.0322,.5443,2.0662,2.4119,1.7834,3.923,2.4332,1.162,.8908,.8041,3.0991-.8371,3.0991-4.6133,.315-7.5334-3.0149-7.2238-7.5159-.1854-1.8334,.5657-6.0542-.7809-7.4958-1.3645-1.6779-4.1274,.1061-5.3486-1.5401-.7584-1.0399-.0565-2.7242,1.2479-2.8327,1.3237,.2406,3.3844,.1213,4.0833-.8333,1.1058-1.0672,.744-4.2839,.7979-5.8399,.0055-5.0983,2.1927-7.5024,7.2241-7.5321Z"></path>
      <path class="o" d="M47.3469,16.5405c4.135,3.241-1.1685,13.0349,6.1891,12.3346,.216-.0191-.4761-.4572-.2582-.4463,2.9776,.3163,2.5575,4.8165-.648,4.135-8.1943-1.2215,3.1447,17.8581-12.2616,15.3013-1.0691-.5422,.4653-2.3012,.9803-2.8509,8.3743-.3209-.0299-13.4049,7.7586-14.4113-5.1562-.5076-3.0563-6.9769-3.9451-10.4942-.4458-1.911-2.315-1.8712-3.763-2.2911-3.139-4.4104,4.3276-3.6023,5.9481-1.2771Z"></path>
      <path class="m" d="M46.4049,16.1194c4.1907,3.577-1.7938,13.7862,6.6697,12.4036,1.3025,.1104,2.0084,1.7911,1.2479,2.8324-1.2164,1.6448-3.9866-.1363-5.3482,1.5406-1.3456,1.4239-.5958,5.6837-.781,7.4959,.3104,4.4973-2.612,7.8344-7.2242,7.5153-1.641,.0003-1.9989-2.208-.8367-3.0985,1.5162-.6562,3.3712-.3578,3.9227-2.4337,1.1329-3.6972-1.779-11.3747,3.9455-12.032-5.1563-.5077-3.0562-6.9769-3.9451-10.4942-.3261-.99-.9611-1.6387-1.92-1.9276-.5878-.1736-1.3586-.0132-1.8429-.3638-3.374-4.7365,4.7818-3.3578,6.1123-1.438Z"></path>
    </g>
  </g>
</svg><style>@media (prefers-color-scheme: light) { :root { filter: none; } }
</style></svg>