<?xml version="1.0" encoding="UTF-8"?>
<svg id="a" data-name="Layer 1" xmlns="http://www.w3.org/2000/svg" xmlns:xlink="http://www.w3.org/1999/xlink" viewBox="0 0 47.9721 34.2403">
  <defs>
    <style>
      .i {
        opacity: .72;
      }

      .j {
        clip-path: url(#b);
      }

      .k {
        stroke: #f3233f;
        stroke-miterlimit: 10;
      }

      .k, .l {
        fill: none;
      }
    </style>
    <clipPath id="b">
      <rect class="l" x="-539.0827" y="-814.2029" width="1338.2572" height="753.4084"/>
    </clipPath>
  </defs>
  <g class="i">
    <g class="j">
      <g id="c" data-name="&amp;lt;Grid Repeat&amp;gt;">
        <path class="k" d="M12.566,33.7142L.2387,26.4325c-.3723-.2236-.7142-.3355-1.024-.3355-.3976,0-.7543,.1495-1.0705,.4481-.3166,.2994-.4749,.679-.4749,1.1395,0,.5976,.2345,1.0461,.7038,1.3447l11.5093,6.7767L-1.6263,42.6276c-.4697,.2733-.7046,.7078-.7046,1.3038,0,.4597,.1583,.8389,.4749,1.1367,.3162,.2982,.6729,.4473,1.0705,.4473,.3226,0,.6637-.1114,1.024-.3351l12.3294-7.2645c.6052-.3611,.9074-.8589,.9074-1.4938v-1.214c0-.6349-.3034-1.1323-.9094-1.4938Z"/>
      </g>
    </g>
  </g>
</svg>