<?xml version="1.0" encoding="UTF-8"?>
<svg xmlns="http://www.w3.org/2000/svg" xmlns:xlink="http://www.w3.org/1999/xlink" viewBox="0 0 55.2886 36.1514">
  <defs>
    <style>
      .o {
        opacity: .72;
      }

      .p, .q, .r, .s {
        stroke: #f3233f;
      }

      .p, .q, .r, .s, .t {
        fill: none;
      }

      .q {
        stroke-width: 1.5px;
      }

      .q, .r {
        stroke-linecap: round;
        stroke-linejoin: round;
      }

      .u {
        clip-path: url(#b);
      }

      .r {
        stroke-width: 4px;
      }

      .s {
        stroke-miterlimit: 10;
      }
    </style>
    <clipPath id="b">
      <rect class="t" x="-568.8215" y="-770.5608" width="1338.2572" height="753.4084"/>
    </clipPath>
  </defs>
  <g id="a" data-name="Layer 1">
    <g class="o">
      <g class="u">
        <g id="c" data-name="&amp;lt;Grid Repeat&amp;gt;">
          <g id="d" data-name="baking">
            <g id="e" data-name="Group 26">
              <path id="f" data-name="Path 21" class="q" d="M58.815,20.121c5.1719-.9821,50.0793,12.4498,50.0793,12.4498,0,0,.2653-2.6203-60.9372-2.9482,0,0,5.6861-8.5195,10.858-9.5016Z"/>
              <path id="g" data-name="Path 22" class="p" d="M108.3308,32.5784s-1.5858,2.7648-3.1091,2.8139c-1.3817,.0746-2.8185-1.6156-4.6204-.5216s-.8838,4.5176-2.5934,4.8976,.4069-4.5802-3.0375-4.8976c-3.4444-.3175-3.3848-1.6977-6.2331-.6066s.1267,8.6582-2.8155,8.7311c-2.9422,.073-.5917-5.9709-2.4264-8.1245s-2.7618,0-5.0392-.6066c-.1937-.0522-1.8675,2.6945-3.5115,2.2773s-1.319-3.9765-3.7008-2.2773-2.9168-2.2402-3.2268,.6066c-.31,2.8468-3.4728,2.9511-3.7261,.5216s-1.2565-2.6097-2.4592,.3517-.4397,9.1887-2.3489,9.3392-.8406-5.9931-1.5709-9.1187,1.6827-2.4742-1.3548-3.3848c-3.0375-.9106,.2549,8.2646-2.9675,8.0887s-2.4831-13.6451-3.6993-9.8475"/>
              <g id="h" data-name="Path 27">
                <path class="s" d="M46.7367,30.9856v22.1707c0,1.4388,4.0375,2.087,5.4778,2.087,0,0,32.1457-1.5649,46.4268-2.087,14.2811-.5221,10.6945,1.4403,10.6945,0v-19.8226c0-1.4418-11.6008-2.348-13.041-2.348l-42.5154-2.348c-1.4403,0-7.0426,.9063-7.0426,2.348Z"/>
                <path class="s" d="M53.7491,30.1241l42.459,2.3444,.0818,.0023c.5963,0,3.2585,.181,6.0111,.5129,3.4591,.417,4.946,.8166,5.5443,1.0303v17.7467c-1.2131-.1195-2.8006-.1812-4.7138-.1812-1.3529,0-2.8834,.0308-4.5488,.0917-13.8985,.5077-45.1021,2.0221-46.3954,2.085-.4945-.0043-1.4198-.1032-2.3306-.3147-.9128-.212-1.4113-.4452-1.6295-.583V31.3844c.2808-.1648,.9655-.4828,2.4554-.8149,1.3287-.2962,2.591-.4383,3.0665-.4454m-7.0124,.8611v22.1705c0,1.4405,4.0369,2.0866,5.4774,2.0866,0,0,32.1472-1.565,46.4276-2.0866,7.4479-.2721,10.0356,.1314,10.8071,.3755-.0639-.0848-.1131-.2068-.1131-.3755v-19.823c0-1.4405-11.6009-2.3475-13.0415-2.3475l-42.5152-2.3475c-1.4405,0-7.0424,.907-7.0424,2.3475Zm62.7628,22.6023c.1982,.2629,.5371,.1699,0,0Z"/>
              </g>
            </g>
          </g>
        </g>
      </g>
    </g>
  </g>
  <g id="m" data-name="Layer 6">
    <path id="n" data-name="Path 1519" class="r" d="M53.2886,34.1514c0-13.9208-1.326-17.0029-9.9888-20.2686-8.6725-3.2693-41.2998,0-41.2998,0,1.2598,2.1643,3.8926,6.0148,8.6273,9.1138,3.683,2.4106,7.1981,3.4243,9.4645,3.8862-2.2664-.4619-5.7815-1.4756-9.4645-3.8862C5.8926,19.8976,2,14.4433,2,13.8828c0-1.5459,3.9212-5.1211,7.3507-7.482,4.0543-2.791,8.0487-3.6428,10.7411-4.4008"/>
  </g>
</svg>